<?xml version="1.0" encoding="iso-8859-1"?>
<!-- Generator: Adobe Illustrator 18.1.1, SVG Export Plug-In . SVG Version: 6.00 Build 0)  -->
<svg xmlns="http://www.w3.org/2000/svg" xmlns:xlink="http://www.w3.org/1999/xlink" version="1.1" id="Capa_1" x="0px" y="0px" viewBox="0 0 367.609 367.609" style="enable-background:new 0 0 367.609 367.609;" xml:space="preserve" width="512px" height="512px">
<g>
	<g id="Layer_5_25_">
		<g>
			<g>
				<path d="M343.159,159.834c-0.825,14.209,1.693,36.713-7.555,49.04c-7.94,10.584-27.844,37.532-35.827,30.604      c-1.944-1.687,10.65-22.946,15.316-37.946c3.578-11.502-6.514-15.909-11.104-11.318c-4.563,4.563-27.558,33.657-36.349,46.733      c-4.141,6.16-11.538,23.149-15.042,31.418c-1.201,2.832-2.262,4.414,0.095,6.124c10.955,7.946,33.392,24.14,45.091,32.632      c0.247,0.179,3.941,2.006,3.304-2.394c-0.697-4.815-0.889-11.074,2.593-14.556c5.463-5.463,54.088-51.593,59.248-59.248      c5.187-7.701-0.418-58.506-2.371-67.989C357.531,148.235,343.759,149.498,343.159,159.834z" fill="#91DC5A"/>
				<path d="M218.742,317.945c-1.516,2.161-1.271,5.499,0.544,7.416l38.747,40.938c1.814,1.917,4.521,1.705,6.013-0.473      l25.812-37.65c1.493-2.178,0.979-5.247-1.14-6.82l-43.737-32.474c-2.12-1.574-5.094-1.093-6.609,1.068L218.742,317.945z" fill="#91DC5A"/>
			</g>
			<g>
				<path d="M7.05,162.934c-1.953,9.482-7.558,60.288-2.371,67.989c5.16,7.655,53.785,53.785,59.248,59.248      c3.482,3.482,3.29,9.741,2.593,14.556c-0.637,4.399,3.057,2.573,3.304,2.394c11.699-8.493,34.136-24.687,45.091-32.632      c2.357-1.709,1.296-3.292,0.095-6.124c-3.504-8.269-10.901-25.258-15.042-31.418c-8.791-13.076-31.786-42.17-36.349-46.733      c-4.59-4.59-14.682-0.184-11.104,11.318c4.666,15,17.26,36.259,15.316,37.946c-7.983,6.928-27.887-20.02-35.827-30.604      c-9.248-12.327-6.73-34.83-7.555-49.04C23.849,149.498,10.077,148.235,7.05,162.934z" fill="#91DC5A"/>
				<path d="M129.236,289.95c-1.516-2.161-4.49-2.642-6.609-1.068L78.89,321.356c-2.119,1.574-2.632,4.643-1.14,6.82l25.812,37.65      c1.493,2.177,4.199,2.39,6.013,0.473l38.747-40.938c1.814-1.917,2.06-5.255,0.544-7.416L129.236,289.95z" fill="#91DC5A"/>
			</g>
			<g>
				<path d="M79.908,165.67c-22.5,0-40.805-18.305-40.805-40.805s18.305-40.806,40.805-40.806s40.806,18.306,40.806,40.806      S102.408,165.67,79.908,165.67z M79.908,100.992c-13.163,0-23.872,10.709-23.872,23.872s10.708,23.872,23.872,23.872      s23.872-10.708,23.872-23.872S93.071,100.992,79.908,100.992z" fill="#91DC5A"/>
			</g>
			<g>
				<path d="M282.678,165.67c-22.5,0-40.805-18.305-40.805-40.805s18.305-40.806,40.805-40.806s40.805,18.306,40.805,40.806      S305.178,165.67,282.678,165.67z M282.678,100.992c-13.163,0-23.872,10.709-23.872,23.872s10.708,23.872,23.872,23.872      s23.872-10.708,23.872-23.872S295.841,100.992,282.678,100.992z" fill="#91DC5A"/>
			</g>
			<g>
				<circle cx="181.293" cy="38.386" r="38.386" fill="#91DC5A"/>
			</g>
		</g>
	</g>
</g>
<g>
</g>
<g>
</g>
<g>
</g>
<g>
</g>
<g>
</g>
<g>
</g>
<g>
</g>
<g>
</g>
<g>
</g>
<g>
</g>
<g>
</g>
<g>
</g>
<g>
</g>
<g>
</g>
<g>
</g>
</svg>
