<?xml version="1.0" encoding="iso-8859-1"?>
<!-- Generator: Adobe Illustrator 19.0.0, SVG Export Plug-In . SVG Version: 6.00 Build 0)  -->
<svg version="1.1" id="Layer_1" xmlns="http://www.w3.org/2000/svg" xmlns:xlink="http://www.w3.org/1999/xlink" x="0px" y="0px"
	 viewBox="0 0 512 512" style="enable-background:new 0 0 512 512;" xml:space="preserve">
<polygon style="fill:#F4D853;" points="256.036,19.232 273.038,53.68 311.055,59.203 283.545,86.018 290.04,123.881 
	256.036,106.004 222.034,123.881 228.528,86.018 201.019,59.203 239.036,53.68 "/>
<path d="M301.343,139.44l-45.306-23.819L210.73,139.44l8.653-50.449l-36.655-35.729l50.655-7.36L256.036,0l22.653,45.901
	l50.655,7.36L292.69,88.99L301.343,139.44z M256.036,96.389l22.699,11.934L274.4,83.047l18.365-17.899l-25.378-3.688l-11.349-22.996
	l-11.349,22.996l-25.378,3.688l18.365,17.899l-4.335,25.276L256.036,96.389z"/>
<path d="M181.706,99.649h-17.022V82.627h17.022V99.649z M132.909,99.649h-17.022V82.627h17.022V99.649z M84.111,99.649H67.089
	V82.627h17.022V99.649z"/>
<path d="M444.983,99.649h-17.022V82.627h17.022V99.649z M396.186,99.649h-17.022V82.627h17.022V99.649z M347.389,99.649h-17.022
	V82.627h17.022V99.649z"/>
<polygon style="fill:#73A1FB;" points="361.078,151.697 338.187,142.084 292.973,250.426 219.989,250.426 219.859,250.548 
	174.596,142.084 150.995,151.697 199.792,269.718 214.92,356.733 226.035,503.49 286.039,503.49 298.559,355.051 312.281,269.718 
	"/>
<g>
	<rect x="249.162" y="256.662" style="fill:#FFFFFF;" width="17.022" height="17.022"/>
	<rect x="248.027" y="285.032" style="fill:#FFFFFF;" width="17.022" height="55.606"/>
</g>
<polygon points="353.213,148.444 304.036,267.384 290.156,353.7 290.106,354.016 278.215,494.978 233.926,494.978 223.375,355.68 
	208.179,268.259 208.016,267.333 158.861,148.444 143.13,154.948 191.568,272.101 206.464,357.785 218.145,512 293.861,512 
	307.013,356.085 320.527,272.05 368.944,154.948 "/>
<path d="M260.505,248.155c17.781,0,32.248-14.467,32.248-32.248v-24.639c0.639-0.499,1.268-1.022,1.87-1.598
	c5.536-5.281,8.343-12.904,8.343-22.656h-17.022c0,4.917-1.033,8.395-3.071,10.339c-4.303,4.107-28.292,2.978-30.738,2.978v17.022
	c2.046,0,21.036,0.403,23.595,0.127v18.426c0,8.395-6.83,15.226-15.226,15.226c-8.395,0-15.226-6.83-15.226-15.226V198.79h-17.022
	v17.116C228.257,233.689,242.724,248.155,260.505,248.155z"/>
<path style="fill:#3D6DEB;" d="M109.716,249.575H57.373l-27.236,24.966v77.168c0,10.655,8.637,19.292,19.292,19.292l11.49,131.639
	h45.393L117.66,371c10.655,0,19.292-8.637,19.292-19.292v-77.168L109.716,249.575z"/>
<g>
	<rect x="74.967" y="255.81" style="fill:#FFFFFF;" width="17.022" height="17.022"/>
	<rect x="74.967" y="284.181" style="fill:#FFFFFF;" width="17.022" height="55.606"/>
</g>
<path d="M115.468,244.151L103.964,256.7l24.476,22.436v73.424c0,5.944-4.837,10.781-10.781,10.781h-7.808L98.503,494.98H68.72
	L57.23,363.341h-7.801c-5.944,0-10.781-4.837-10.781-10.781v-73.424L63.124,256.7l-11.504-12.549l-29.995,27.495v80.911
	c0,12.587,8.408,23.248,19.902,26.66L53.117,512h61.002l11.447-132.784c11.491-3.415,19.896-14.073,19.896-26.658v-80.911
	L115.468,244.151z"/>
<path d="M83.474,248.155c17.781,0,32.248-14.467,32.248-32.248v-24.639c0.639-0.499,1.268-1.022,1.87-1.598
	c5.536-5.281,8.343-12.904,8.343-22.654h-17.022c0,4.917-1.033,8.394-3.071,10.339c-4.301,4.106-28.292,2.978-30.738,2.978v17.022
	H98.7v18.553c0,8.395-6.83,15.226-15.226,15.226s-15.226-6.83-15.226-15.226v-17.116H51.226v17.116
	C51.226,233.689,65.692,248.155,83.474,248.155z"/>
<path id="SVGCleanerId_0" style="fill:#3D6DEB;" d="M454.701,249.575h-52.343l-27.236,24.966v77.168
	c0,10.655,8.637,19.292,19.292,19.292l11.49,131.639h45.393L462.645,371c10.655,0,19.292-8.637,19.292-19.292v-77.168
	L454.701,249.575z"/>
<g>
	<path id="SVGCleanerId_0_1_" style="fill:#3D6DEB;" d="M454.701,249.575h-52.343l-27.236,24.966v77.168
		c0,10.655,8.637,19.292,19.292,19.292l11.49,131.639h45.393L462.645,371c10.655,0,19.292-8.637,19.292-19.292v-77.168
		L454.701,249.575z"/>
</g>
<g>
	<rect x="419.952" y="255.81" style="fill:#FFFFFF;" width="17.022" height="17.022"/>
	<rect x="419.952" y="284.181" style="fill:#FFFFFF;" width="17.022" height="55.606"/>
</g>
<path d="M460.382,243.874l-11.504,12.549l24.476,22.436v73.424c0,5.944-4.837,10.781-10.781,10.781h-7.809l-11.348,131.639h-29.783
	l-11.49-131.639h-7.801c-5.944,0-10.781-4.837-10.781-10.781v-73.425l24.476-22.436l-11.504-12.549l-29.996,27.495v80.911
	c0,12.587,8.408,23.248,19.902,26.66l11.59,132.782h61.002l11.447-132.784c11.491-3.415,19.896-14.073,19.896-26.658v-80.911
	L460.382,243.874z"/>
<path d="M428.387,247.879c17.781,0,32.248-14.467,32.248-32.248v-24.639c0.639-0.499,1.268-1.022,1.87-1.598
	c5.536-5.281,8.343-12.904,8.343-22.654h-17.022c0,4.917-1.033,8.394-3.071,10.339c-4.301,4.106-28.292,2.978-30.738,2.978v17.022
	h23.595v18.553c0,8.395-6.83,15.226-15.226,15.226s-15.226-6.83-15.226-15.226v-17.116h-17.022v17.116
	C396.139,233.413,410.605,247.879,428.387,247.879z"/>
<g>
</g>
<g>
</g>
<g>
</g>
<g>
</g>
<g>
</g>
<g>
</g>
<g>
</g>
<g>
</g>
<g>
</g>
<g>
</g>
<g>
</g>
<g>
</g>
<g>
</g>
<g>
</g>
<g>
</g>
</svg>
