<?xml version="1.0" encoding="iso-8859-1"?>
<!-- Generator: Adobe Illustrator 18.1.1, SVG Export Plug-In . SVG Version: 6.00 Build 0)  -->
<svg xmlns="http://www.w3.org/2000/svg" xmlns:xlink="http://www.w3.org/1999/xlink" version="1.1" id="Capa_1" x="0px" y="0px" viewBox="0 0 22.329 22.329" style="enable-background:new 0 0 22.329 22.329;" xml:space="preserve" width="512px" height="512px">
<g>
	<g>
		<path d="M20.932,0H1.397C0.626,0,0,0.626,0,1.396v19.537c0,0.771,0.626,1.395,1.397,1.395h19.535c0.771,0,1.397-0.624,1.397-1.395    V1.396C22.329,0.626,21.703,0,20.932,0z M20.136,19.014c0,0.619-0.502,1.121-1.12,1.121H3.318c-0.624,0-1.125-0.502-1.125-1.121    V3.316c0-0.62,0.502-1.123,1.125-1.123h15.698c0.618,0,1.12,0.502,1.12,1.123C20.136,3.316,20.136,19.014,20.136,19.014z" fill="#91DC5A"/>
		<polygon points="18.68,7.402 17.204,5.928 9.623,13.509 6.754,10.639 5.28,12.114 9.597,16.432 9.623,16.404 9.651,16.432   " fill="#91DC5A"/>
	</g>
	<g>
	</g>
	<g>
	</g>
	<g>
	</g>
	<g>
	</g>
	<g>
	</g>
	<g>
	</g>
	<g>
	</g>
	<g>
	</g>
	<g>
	</g>
	<g>
	</g>
	<g>
	</g>
	<g>
	</g>
	<g>
	</g>
	<g>
	</g>
	<g>
	</g>
</g>
<g>
</g>
<g>
</g>
<g>
</g>
<g>
</g>
<g>
</g>
<g>
</g>
<g>
</g>
<g>
</g>
<g>
</g>
<g>
</g>
<g>
</g>
<g>
</g>
<g>
</g>
<g>
</g>
<g>
</g>
</svg>
